# File produced by Open Asset Import Library (http://www.assimp.sf.net)
# (assimp v3.1.151885474)

mtllib Church.mtl

# vertex positions
v -2.001170 -1.000000 0.000000
v -1.000000 -1.000000 0.000000
v -1.000000 1.999726 0.000000
v -2.001170 1.999726 0.000000
v -2.001170 1.999726 -1.997067
v -2.001170 1.999726 -1.000000
v -1.000000 1.000000 -1.000000
v -1.000000 1.000000 -1.997067
v -2.001170 -1.000000 -1.000000
v -1.000000 -1.000000 -1.000000
v -1.000000 -1.000000 -1.997067
v -2.001170 -1.000000 -1.997067
v 1.000000 -1.000000 -1.000000
v 1.000000 1.000000 -1.000000
v 1.000000 -1.000000 0.000000
v 1.000000 1.999726 0.000000
v -3.002340 -1.000000 0.000000
v -3.002340 1.999726 0.000000
v -3.002340 -1.000000 -1.997067
v -3.002340 -1.000000 -1.000000
v -3.999407 1.999726 0.000000
v -3.002340 1.000000 -1.000000
v -3.999407 1.000000 -1.000000
v -3.002340 1.000000 -1.997067
v -3.999407 0.000000 -1.000000
v -3.999407 0.000000 -0.500000
v -3.999407 1.000000 -0.500000
v -3.999407 -1.000000 -1.000000
v -3.999407 -1.000000 0.000000
v -3.999407 0.000000 0.000000
v -3.999407 -1.000000 -0.500000
v -4.298938 -1.000000 0.000000
v -4.298938 0.000000 0.000000
v -4.298938 0.000000 -0.250676
v -4.298938 -1.000000 -0.250676
v -4.298938 0.999370 0.000000
v -4.298938 1.000000 -0.250676
v -1.000000 1.000000 1.000000
v -2.001170 1.999726 1.000000
v -2.001170 1.999726 1.997067
v -1.000000 1.000000 1.997067
v -1.000000 -1.000000 1.000000
v -2.001170 -1.000000 1.000000
v -1.000000 -1.000000 1.997067
v -2.001170 -1.000000 1.997067
v 1.000000 -1.000000 1.000000
v 1.000000 1.000000 1.000000
v -3.002340 -1.000000 1.997067
v -3.002340 -1.000000 1.000000
v -3.002340 1.000000 1.000000
v -3.999407 1.000000 1.000000
v -3.002340 1.000000 1.997067
v -3.999407 1.000000 0.500000
v -3.999407 0.000000 0.500000
v -3.999407 0.000000 1.000000
v -3.999407 -1.000000 1.000000
v -3.999407 -1.000000 0.500000
v -4.298938 0.000000 0.250676
v -4.298938 -1.000000 0.250676
v -4.298938 1.000000 0.250676
v -1.687811 1.234940 -0.315124
v -2.002935 1.234940 -0.445653
v -2.002935 2.126246 -0.445653
v -1.687811 2.126246 -0.315124
v -1.557282 1.234940 0.000000
v -1.557282 2.126246 0.000000
v -1.687811 1.234940 0.315124
v -1.687811 2.126246 0.315124
v -2.002935 1.234940 0.445653
v -2.002935 2.126246 0.445653
v -2.318060 1.234940 0.315124
v -2.318060 2.126246 0.315124
v -2.448589 1.234940 0.000000
v -2.448589 2.126246 0.000000
v -2.306043 2.126246 0.000000
v -2.217264 2.126246 0.214329
v -2.318060 1.234940 -0.315124
v -2.318060 2.126246 -0.315124
v -2.217264 2.598929 0.214329
v -2.002935 2.126246 0.303107
v -2.002935 2.598929 0.303107
v -1.788606 2.126246 0.214329
v -2.217264 2.126246 -0.214329
v -1.699828 2.126246 0.000000
v -1.788606 2.126246 -0.214329
v -2.002935 2.126246 -0.303107
v -2.317140 2.598930 -0.314205
v -2.217264 2.598929 -0.214329
v -2.306043 2.598929 0.000000
v -2.447288 2.598930 0.000000
v -1.788606 2.598929 0.214329
v -1.699828 2.598929 0.000000
v -1.788606 2.598929 -0.214329
v -2.002935 2.598929 -0.303107
v -2.041667 3.367041 0.000000
v -2.317140 2.598930 0.314205
v -2.030323 3.367041 0.027388
v -2.002935 2.598930 0.444352
v -1.688731 2.598930 0.314205
v -1.558583 2.598930 0.000000
v -1.688731 2.598930 -0.314205
v -2.002935 2.598930 -0.444352
v -1.964203 3.367041 0.000000
v -1.975547 3.367041 -0.027388
v -2.002935 3.367041 -0.038732
v -2.030323 3.367041 -0.027388
v -2.002935 3.367041 0.038732
v -1.975547 3.367041 0.027388

# UV coordinates
vt 0.551291 0.186048
vt 0.551291 0.267112
vt 0.314838 0.267112
vt 0.314838 0.186048
vt 0.000000 0.672053
vt 0.078594 0.672053
vt 0.078594 0.786612
vt 0.000000 0.786612
vt 0.236244 0.186048
vt 0.236244 0.267112
vt 0.157419 0.267112
vt 0.157419 0.186048
vt 0.000000 0.590989
vt 0.078803 0.590989
vt 0.630209 0.505390
vt 0.709126 0.586337
vt 0.709126 0.748275
vt 0.630209 0.748275
vt 0.236454 0.429051
vt 0.236454 0.590989
vt 0.078803 0.429051
vt 0.630116 0.957877
vt 0.551291 0.957877
vt 0.551291 0.817099
vt 0.630116 0.748275
vt 0.236244 0.429051
vt 0.157419 0.429051
vt 0.551291 0.104985
vt 0.314838 0.104985
vt 0.000000 0.429051
vt 0.236244 0.104985
vt 0.078594 0.901038
vt 0.000000 0.901038
vt 0.616086 0.242886
vt 0.694680 0.242886
vt 0.694680 0.323833
vt 0.616086 0.323833
vt 0.393872 0.675069
vt 0.315279 0.675069
vt 0.315279 0.513268
vt 0.393872 0.513268
vt 0.551291 0.586337
vt 0.551291 0.748275
vt 0.315279 0.429051
vt 0.393872 0.429051
vt 0.157419 0.104985
vt 0.773597 0.242886
vt 0.998814 0.169300
vt 0.959375 0.168777
vt 0.959743 0.087934
vt 0.999182 0.088458
vt 0.694680 0.485771
vt 0.616086 0.485771
vt 0.616086 0.404802
vt 0.551291 0.024253
vt 0.314838 0.024253
vt 0.472466 0.024253
vt 0.236244 0.024253
vt 0.157419 0.024253
vt 0.196831 0.024253
vt 0.998446 0.250142
vt 0.959008 0.249619
vt 0.551291 0.000000
vt 0.472466 0.000000
vt 0.748645 0.667306
vt 0.772256 0.667306
vt 0.772256 0.748275
vt 0.748645 0.748275
vt 0.748645 0.749068
vt 0.728885 0.749068
vt 0.728885 0.668167
vt 0.748645 0.668167
vt 0.728885 0.587318
vt 0.748645 0.587267
vt 0.177178 0.000000
vt 0.157419 0.000000
vt 0.728885 0.505390
vt 0.748645 0.586337
vt 0.772256 0.586337
vt 0.393691 0.000000
vt 0.772256 0.505390
vt 0.157419 0.672053
vt 0.315279 0.789628
vt 0.393872 0.789628
vt 0.078594 0.267112
vt 0.078594 0.186048
vt 0.393641 0.267112
vt 0.616086 0.080947
vt 0.695003 0.000000
vt 0.695003 0.242886
vt 0.551291 0.429051
vt 0.393641 0.429051
vt 0.708941 0.817874
vt 0.708941 0.957877
vt 0.078594 0.429051
vt 0.314838 0.429051
vt 0.000000 0.186048
vt 0.000000 0.104985
vt 0.078594 0.104985
vt 0.000000 0.267112
vt 0.315279 0.904054
vt 0.393872 0.904054
vt 0.393641 0.104985
vt 0.393641 0.024253
vt 0.472466 0.513268
vt 0.472466 0.675069
vt 0.393873 0.675069
vt 0.393873 0.513268
vt 0.773920 0.080947
vt 0.773920 0.242886
vt 0.393873 0.429051
vt 0.472466 0.429051
vt 0.957296 0.340792
vt 0.956640 0.421633
vt 0.917198 0.421656
vt 0.917855 0.340815
vt 0.078594 0.024253
vt 0.118006 0.024253
vt 0.955983 0.502473
vt 0.916541 0.502497
vt 0.772255 0.748275
vt 0.772255 0.667306
vt 0.795866 0.667306
vt 0.795866 0.748275
vt 0.709126 0.749068
vt 0.709126 0.668167
vt 0.709126 0.587267
vt 0.137659 0.000000
vt 0.772255 0.586337
vt 0.795866 0.586337
vt 0.772255 0.505390
vt 0.236454 0.675069
vt 0.920672 0.006591
vt 0.997395 0.259950
vt 0.496862 0.841740
vt 0.436532 0.841740
vt 0.436532 0.681623
vt 0.496862 0.681623
vt 0.539522 0.835186
vt 0.539522 0.675069
vt 0.834251 0.160117
vt 0.773920 0.160117
vt 0.773920 0.000000
vt 0.834251 0.000000
vt 0.751786 0.915739
vt 0.709126 0.909185
vt 0.751786 0.755622
vt 0.812116 0.915739
vt 0.812116 0.755622
vt 0.854776 0.909185
vt 0.854776 0.749068
vt 0.446181 0.865667
vt 0.487214 0.865667
vt 0.217749 0.832170
vt 0.157419 0.832170
vt 0.217749 0.672053
vt 0.393872 0.835186
vt 0.859115 0.928047
vt 0.941781 0.928047
vt 0.941781 0.970196
vt 0.859115 0.970196
vt 0.516229 0.895471
vt 0.539522 0.885560
vt 0.539522 0.947531
vt 0.516228 0.937620
vt 0.417166 0.895471
vt 0.393872 0.885560
vt 0.487214 0.967424
vt 0.496862 0.991352
vt 0.436532 0.991352
vt 0.446181 0.967424
vt 0.417166 0.937620
vt 0.393872 0.947531
vt 0.897311 0.898243
vt 0.906871 0.874534
vt 0.947904 0.874534
vt 0.957465 0.898243
vt 0.875283 0.153108
vt 0.875283 0.238022
vt 0.834250 0.238022
vt 0.834250 0.153108
vt 0.836899 0.662955
vt 0.836899 0.747869
vt 0.795866 0.747869
vt 0.795866 0.662955
vt 0.843645 0.406164
vt 0.843645 0.491078
vt 0.814630 0.495536
vt 0.814630 0.410621
vt 0.854776 0.898243
vt 0.937441 0.898243
vt 0.937441 1.000000
vt 0.854776 1.000000
vt 0.865914 0.658497
vt 0.865914 0.743412
vt 0.773597 0.495536
vt 0.773597 0.410621
vt 0.777181 0.247370
vt 0.814709 0.393189
vt 0.773597 0.406164
vt 0.773597 0.248501
vt 1.000000 0.854551
vt 0.976919 0.844730
vt 0.976919 0.802581
vt 1.000000 0.792760
vt 0.957465 0.749068
vt 0.947904 0.772777
vt 0.906871 0.772777
vt 0.897311 0.749068
vt 0.854776 0.792760
vt 0.877857 0.802581
vt 0.877857 0.844730
vt 0.854776 0.854551
vt 0.625037 0.498774
vt 0.619793 0.498774
vt 0.616086 0.494965
vt 0.616086 0.489579
vt 0.619793 0.485771
vt 0.625037 0.485771
vt 0.628744 0.489579
vt 0.628744 0.494965
vt 0.890404 0.506661
vt 0.836462 0.646944
vt 0.795866 0.632355
vt 0.886865 0.505390
vt 0.842940 0.000000
vt 0.933939 0.126965
vt 0.893344 0.141554
vt 0.839401 0.001272
vt 0.781910 0.245044
vt 0.868965 0.366506
vt 0.895555 0.507668
vt 0.895555 0.658498
vt 0.190118 0.832170
vt 0.217573 0.980339
vt 0.157419 0.980339
vt 0.184874 0.832170
vt 0.834250 0.002279
vt 0.785014 0.242885
vt 0.904582 0.341743

# vertex normals
vn 0.000000 0.000000 1.000000
vn 0.706607 0.707607 0.000000
vn -0.000000 -1.000000 -0.000000
vn 0.000000 0.707207 -0.707007
vn -0.000000 -0.000000 -1.000000
vn 1.000000 0.000000 0.000000
vn -1.000000 -0.000000 -0.000000
vn -0.706607 0.707607 0.000000
vn -0.639771 -0.000000 -0.768565
vn -0.957991 0.286797 0.000700
vn -0.597186 0.358791 -0.717383
vn 0.000000 0.707207 0.707007
vn -0.639771 0.000000 0.768565
vn -0.957991 0.286797 -0.000700
vn -0.597186 0.358791 0.717383
vn 0.382690 0.000000 -0.923877
vn 0.923877 0.000000 -0.382690
vn 0.923877 0.000000 0.382690
vn 0.382690 0.000000 0.923877
vn -0.382690 0.000000 0.923877
vn -0.923877 0.000000 0.382690
vn 0.000000 1.000000 0.000000
vn -0.923877 -0.000000 -0.382690
vn -0.382690 -0.000000 -0.923877
vn -0.830322 0.438511 0.343909
vn 0.343909 0.438511 0.830322
vn 0.830322 0.438511 -0.343909
vn -0.830322 0.438511 -0.343909
vn -0.343909 0.438511 0.830322
vn 0.830322 0.438511 0.343909
vn 0.343909 0.438511 -0.830322
vn -0.343909 0.438511 -0.830322

# Mesh
g Cube
usemtl Material
f 1/1/1 2/2/1 3/3/1
f 3/3/1 4/4/1 1/1/1
f 5/5/2 6/6/2 7/7/2
f 7/7/2 8/8/2 5/5/2
f 9/9/3 10/10/3 2/11/3
f 2/11/3 1/12/3 9/9/3
f 3/13/4 7/14/4 4/5/4
f 5/15/5 8/16/5 11/17/5
f 11/17/5 12/18/5 5/15/5
f 13/19/5 10/20/5 7/14/5
f 7/14/5 14/21/5 13/19/5
f 15/22/6 13/23/6 14/24/6
f 14/24/6 16/25/6 15/22/6
f 2/11/3 10/10/3 13/26/3
f 13/26/3 15/27/3 2/11/3
f 17/28/1 1/1/1 4/4/1
f 4/4/1 18/29/1 17/28/1
f 16/30/4 14/21/4 7/14/4
f 7/14/4 3/13/4 16/30/4
f 19/29/3 12/4/3 9/9/3
f 9/9/3 20/31/3 19/29/3
f 11/3/3 10/10/3 9/9/3
f 9/9/3 12/4/3 11/3/3
f 8/8/6 7/7/6 10/32/6
f 10/32/6 11/33/6 8/8/6
f 21/34/4 18/35/4 22/36/4
f 22/36/4 23/37/4 21/34/4
f 19/38/7 20/39/7 22/40/7
f 22/40/7 24/41/7 19/38/7
f 24/42/5 5/15/5 12/18/5
f 12/18/5 19/43/5 24/42/5
f 22/40/8 6/44/8 5/45/8
f 5/45/8 24/41/8 22/40/8
f 20/31/3 9/9/3 1/12/3
f 1/12/3 17/46/3 20/31/3
f 4/47/4 22/36/4 18/35/4
f 25/48/7 26/49/7 27/50/7
f 27/50/7 23/51/7 25/48/7
f 23/37/5 22/36/5 20/52/5
f 23/37/5 20/52/5 28/53/5
f 28/53/5 25/54/5 23/37/5
f 29/55/1 17/28/1 18/29/1
f 29/55/1 18/29/1 21/56/1
f 21/56/1 30/57/1 29/55/1
f 28/58/3 20/31/3 17/46/3
f 28/58/3 17/46/3 29/59/3
f 29/59/3 31/60/3 28/58/3
f 28/61/7 31/62/7 26/49/7
f 26/49/7 25/48/7 28/61/7
f 32/63/1 29/55/1 30/57/1
f 30/57/1 33/64/1 32/63/1
f 34/65/9 26/66/9 31/67/9
f 31/67/9 35/68/9 34/65/9
f 35/69/7 32/70/7 33/71/7
f 33/71/7 34/72/7 35/69/7
f 34/72/7 33/71/7 36/73/7
f 36/73/7 37/74/7 34/72/7
f 35/75/3 31/60/3 29/59/3
f 29/59/3 32/76/3 35/75/3
f 21/77/10 37/74/10 36/73/10
f 37/78/9 27/79/9 26/66/9
f 26/66/9 34/65/9 37/78/9
f 33/64/1 30/57/1 21/56/1
f 21/56/1 36/80/1 33/64/1
f 37/78/11 21/81/11 27/79/11
f 4/82/2 7/7/2 6/6/2
f 22/40/8 4/19/8 6/44/8
f 38/83/2 39/39/2 40/38/2
f 40/38/2 41/84/2 38/83/2
f 2/11/3 42/85/3 43/86/3
f 43/86/3 1/12/3 2/11/3
f 3/3/12 4/4/12 38/87/12
f 44/34/1 41/88/1 40/89/1
f 40/89/1 45/90/1 44/34/1
f 38/87/1 42/2/1 46/91/1
f 46/91/1 47/92/1 38/87/1
f 47/93/6 46/94/6 15/22/6
f 15/22/6 16/25/6 47/93/6
f 46/95/3 42/85/3 2/11/3
f 2/11/3 15/27/3 46/95/3
f 38/87/12 47/92/12 16/96/12
f 16/96/12 3/3/12 38/87/12
f 43/86/3 45/97/3 48/98/3
f 48/98/3 49/99/3 43/86/3
f 43/86/3 42/85/3 44/100/3
f 44/100/3 45/97/3 43/86/3
f 42/101/6 38/83/6 41/84/6
f 41/84/6 44/102/6 42/101/6
f 50/103/12 18/29/12 21/56/12
f 21/56/12 51/104/12 50/103/12
f 50/105/7 49/106/7 48/107/7
f 48/107/7 52/108/7 50/105/7
f 45/90/1 40/89/1 52/109/1
f 52/109/1 48/110/1 45/90/1
f 40/111/8 39/112/8 50/105/8
f 50/105/8 52/108/8 40/111/8
f 1/12/3 43/86/3 49/99/3
f 49/99/3 17/46/3 1/12/3
f 4/4/12 18/29/12 50/103/12
f 53/113/7 54/114/7 55/115/7
f 55/115/7 51/116/7 53/113/7
f 49/28/1 50/103/1 51/104/1
f 49/28/1 51/104/1 55/57/1
f 55/57/1 56/55/1 49/28/1
f 17/46/3 49/99/3 56/117/3
f 17/46/3 56/117/3 57/118/3
f 57/118/3 29/59/3 17/46/3
f 54/114/7 57/119/7 56/120/7
f 56/120/7 55/115/7 54/114/7
f 57/121/13 54/122/13 58/123/13
f 58/123/13 59/124/13 57/121/13
f 33/71/7 32/70/7 59/125/7
f 59/125/7 58/126/7 33/71/7
f 36/73/7 33/71/7 58/126/7
f 58/126/7 60/127/7 36/73/7
f 29/59/3 57/118/3 59/128/3
f 59/128/3 32/76/3 29/59/3
f 21/77/14 36/73/14 60/127/14
f 54/122/13 53/129/13 60/130/13
f 60/130/13 58/123/13 54/122/13
f 60/130/15 53/129/15 21/131/15
f 4/132/2 39/39/2 38/83/2
f 50/105/8 39/112/8 4/91/8
f 21/133/7 23/51/7 27/50/7
f 51/116/7 21/134/7 53/113/7

# Mesh
g Cylinder
usemtl Material
f 61/135/16 62/136/16 63/137/16
f 63/137/16 64/138/16 61/135/16
f 65/139/17 61/135/17 64/138/17
f 64/138/17 66/140/17 65/139/17
f 67/141/18 65/142/18 66/143/18
f 66/143/18 68/144/18 67/141/18
f 69/145/19 67/146/19 68/125/19
f 68/125/19 70/147/19 69/145/19
f 71/148/20 69/145/20 70/147/20
f 70/147/20 72/149/20 71/148/20
f 73/150/21 71/148/21 72/149/21
f 72/149/21 74/151/21 73/150/21
f 75/152/22 74/136/22 72/135/22
f 72/135/22 76/153/22 75/152/22
f 77/154/23 73/155/23 74/82/23
f 74/82/23 78/156/23 77/154/23
f 62/136/24 77/157/24 78/38/24
f 78/38/24 63/137/24 62/136/24
f 79/158/20 76/159/20 80/160/20
f 80/160/20 81/161/20 79/158/20
f 80/162/22 70/163/22 68/164/22
f 68/164/22 82/165/22 80/162/22
f 83/166/22 78/167/22 74/136/22
f 74/136/22 75/152/22 83/166/22
f 84/168/22 66/169/22 64/170/22
f 64/170/22 85/171/22 84/168/22
f 76/153/22 72/135/22 70/163/22
f 70/163/22 80/162/22 76/153/22
f 86/172/22 63/173/22 78/167/22
f 78/167/22 83/166/22 86/172/22
f 85/171/22 64/170/22 63/173/22
f 63/173/22 86/172/22 85/171/22
f 82/165/22 68/164/22 66/169/22
f 66/169/22 84/168/22 82/165/22
f 87/174/3 88/175/3 89/176/3
f 89/176/3 90/177/3 87/174/3
f 91/178/18 82/179/18 84/180/18
f 84/180/18 92/181/18 91/178/18
f 93/182/16 85/183/16 86/184/16
f 86/184/16 94/185/16 93/182/16
f 94/186/24 86/187/24 83/188/24
f 83/188/24 88/189/24 94/186/24
f 89/190/21 75/191/21 76/159/21
f 76/159/21 79/158/21 89/190/21
f 81/161/19 80/160/19 82/192/19
f 82/192/19 91/193/19 81/161/19
f 92/194/17 84/195/17 85/183/17
f 85/183/17 93/182/17 92/194/17
f 88/189/23 83/188/23 75/196/23
f 75/196/23 89/197/23 88/189/23
f 95/198/25 90/199/25 96/200/25
f 96/200/25 97/201/25 95/198/25
f 96/202/3 79/203/3 81/204/3
f 81/204/3 98/205/3 96/202/3
f 99/206/3 91/207/3 92/208/3
f 92/208/3 100/209/3 99/206/3
f 101/210/3 93/211/3 94/212/3
f 94/212/3 102/213/3 101/210/3
f 102/213/3 94/212/3 88/175/3
f 88/175/3 87/174/3 102/213/3
f 90/177/3 89/176/3 79/203/3
f 79/203/3 96/202/3 90/177/3
f 98/205/3 81/204/3 91/207/3
f 91/207/3 99/206/3 98/205/3
f 100/209/3 92/208/3 93/211/3
f 93/211/3 101/210/3 100/209/3
f 103/214/22 104/215/22 105/216/22
f 103/214/22 105/216/22 106/217/22
f 103/214/22 106/217/22 95/218/22
f 103/214/22 95/218/22 97/219/22
f 103/214/22 97/219/22 107/220/22
f 107/220/22 108/221/22 103/214/22
f 107/222/26 98/223/26 99/224/26
f 99/224/26 108/225/26 107/222/26
f 103/226/27 100/227/27 101/228/27
f 101/228/27 104/229/27 103/226/27
f 106/230/28 87/231/28 90/199/28
f 90/199/28 95/198/28 106/230/28
f 97/232/29 96/233/29 98/223/29
f 98/223/29 107/222/29 97/232/29
f 108/234/30 99/235/30 100/236/30
f 100/236/30 103/237/30 108/234/30
f 104/229/31 101/228/31 102/181/31
f 102/181/31 105/238/31 104/229/31
f 105/239/32 102/240/32 87/231/32
f 87/231/32 106/230/32 105/239/32
